<svg width="14" height="20" viewBox="0 0 14 20" fill="none" xmlns="http://www.w3.org/2000/svg">
<path fill-rule="evenodd" clip-rule="evenodd" d="M5.78077 0.0922382C2.87234 0.606775 0.590532 2.90169 0.0913645 5.81433C0.00625077 6.31102 0 6.59668 0 10.0016C0 13.4065 0.00625077 13.6922 0.0913645 14.1889C0.577184 17.0235 2.7085 19.2379 5.56017 19.871C6.23732 20.0213 7.42928 20.0438 8.15418 19.9198C11.0256 19.429 13.1941 17.3556 13.8758 14.4492C13.9744 14.029 13.9776 13.9148 13.9931 10.1956C14.0083 6.56005 14.0046 6.34709 13.916 5.82753C13.4145 2.88483 11.1246 0.591886 8.18478 0.0886686C7.48624 -0.0309125 6.46831 -0.0293626 5.78077 0.0922382ZM8.01206 2.09135C8.94013 2.2841 9.73591 2.70043 10.4286 3.35559C10.9077 3.80879 11.1976 4.2052 11.4934 4.81161C11.7706 5.37973 11.915 5.86975 11.985 6.47898C12.0446 6.99934 12.0446 13.0039 11.985 13.5242C11.8933 14.3226 11.5935 15.1483 11.1545 15.8114C10.9292 16.1515 10.3983 16.7146 10.0576 16.9747C8.56443 18.1146 6.57932 18.3326 4.902 17.5409C4.33333 17.2725 3.99931 17.0473 3.5775 16.6476C2.99313 16.0939 2.63265 15.5606 2.33468 14.8089C1.99249 13.9455 1.99742 14.0158 1.99742 10.0016C1.99742 5.98741 1.99249 6.05772 2.33468 5.1943C2.71532 4.23394 3.39534 3.37673 4.19712 2.84655C4.83005 2.42802 5.6857 2.10995 6.43156 2.01592C6.82677 1.96608 7.58283 2.00215 8.01206 2.09135ZM6.62674 4.06453C6.41431 4.15649 6.21823 4.34404 6.10544 4.56314C6.02197 4.72542 6.01577 4.85745 6.01577 6.4786C6.01577 7.94396 6.02728 8.24738 6.08852 8.39378C6.38827 9.11084 7.368 9.20093 7.82313 8.55333L7.96619 8.34977L7.97954 6.54671C7.99218 4.83908 7.98804 4.73425 7.90161 4.56629C7.65257 4.08242 7.09362 3.86242 6.62674 4.06453Z" fill="white"/>
</svg>
