<svg width="20" height="172" viewBox="0 0 20 172" fill="none" xmlns="http://www.w3.org/2000/svg">
<path d="M11.5308 130.917C12.0809 130.917 12.5506 131.054 12.9399 131.329C13.325 131.6 13.6191 131.981 13.8223 132.472C14.0254 132.963 14.127 133.54 14.127 134.205C14.127 134.556 14.11 134.888 14.0762 135.201C14.0423 135.515 13.9937 135.802 13.9302 136.065C13.8667 136.327 13.7884 136.558 13.6953 136.757L12.6606 136.757C12.7918 136.439 12.9146 136.052 13.0288 135.595C13.1388 135.138 13.1938 134.66 13.1938 134.16C13.1938 133.695 13.1325 133.301 13.0098 132.98C12.8828 132.658 12.703 132.415 12.4702 132.25C12.2332 132.08 11.9497 131.996 11.6196 131.996C11.3022 131.996 11.0378 132.066 10.8262 132.205C10.6104 132.345 10.4157 132.578 10.2422 132.904C10.0645 133.225 9.87614 133.665 9.67725 134.224C9.5376 134.617 9.38525 134.964 9.22021 135.265C9.05094 135.565 8.86051 135.817 8.64893 136.02C8.43734 136.223 8.19189 136.378 7.9126 136.484C7.6333 136.585 7.3138 136.636 6.9541 136.636C6.45898 136.636 6.03581 136.511 5.68457 136.261C5.3291 136.008 5.05827 135.658 4.87207 135.214C4.68164 134.765 4.58643 134.251 4.58643 133.672C4.58643 133.176 4.63297 132.719 4.72607 132.3C4.81917 131.877 4.94401 131.49 5.10059 131.139L6.02734 131.475C5.88769 131.81 5.77132 132.165 5.67822 132.542C5.58512 132.914 5.53857 133.299 5.53857 133.697C5.53857 134.095 5.59782 134.431 5.71631 134.706C5.83057 134.977 5.99349 135.184 6.20508 135.328C6.41667 135.472 6.66846 135.544 6.96045 135.544C7.2863 135.544 7.55713 135.476 7.77295 135.341C7.98877 135.201 8.18131 134.981 8.35059 134.681C8.51562 134.376 8.68913 133.974 8.87109 133.475C9.06999 132.929 9.28157 132.466 9.50586 132.085C9.72591 131.704 9.99674 131.414 10.3184 131.215C10.6357 131.016 11.0399 130.917 11.5308 130.917ZM14.127 121.191C14.127 121.817 13.9979 122.369 13.7397 122.848C13.4816 123.326 13.0881 123.698 12.5591 123.965C12.0301 124.231 11.3636 124.365 10.5596 124.365C9.71745 124.365 9.02978 124.225 8.49658 123.946C7.95915 123.662 7.56136 123.273 7.30322 122.778C7.04508 122.283 6.91601 121.72 6.91601 121.089C6.91601 120.742 6.95198 120.408 7.02392 120.086C7.09163 119.76 7.17838 119.494 7.28418 119.287L8.1665 119.604C8.08187 119.815 8.0057 120.061 7.93799 120.34C7.87028 120.615 7.83642 120.873 7.83642 121.115C7.83642 121.597 7.9401 121.999 8.14746 122.321C8.35482 122.638 8.6595 122.877 9.06152 123.038C9.46354 123.195 9.95866 123.273 10.5469 123.273C11.1097 123.273 11.59 123.197 11.9878 123.044C12.3856 122.888 12.6903 122.657 12.9019 122.352C13.1092 122.044 13.2129 121.658 13.2129 121.197C13.2129 120.829 13.1748 120.497 13.0986 120.201C13.0182 119.904 12.9251 119.636 12.8193 119.394L13.7588 119.394C13.8773 119.627 13.9683 119.887 14.0317 120.175C14.0952 120.459 14.127 120.797 14.127 121.191ZM6.91601 109.383C6.91601 109.243 6.92448 109.097 6.9414 108.945C6.9541 108.793 6.97314 108.657 6.99853 108.539L7.97607 108.672C7.94645 108.786 7.92318 108.913 7.90625 109.053C7.88932 109.192 7.88086 109.324 7.88086 109.446C7.88086 109.726 7.93799 109.99 8.05224 110.24C8.16227 110.485 8.32308 110.701 8.53467 110.887C8.74202 111.074 8.99381 111.219 9.29004 111.325C9.58203 111.431 9.90788 111.484 10.2676 111.484L14 111.484L14 112.544L7.04297 112.544L7.04297 111.668L8.32519 111.554L8.32519 111.509C8.06706 111.365 7.83219 111.192 7.6206 110.989C7.40478 110.786 7.2334 110.551 7.10644 110.284C6.97949 110.013 6.91601 109.713 6.91601 109.383ZM10.5088 96.0262C11.0801 96.0262 11.59 96.1002 12.0386 96.2483C12.4871 96.3965 12.8659 96.6102 13.1748 96.8895C13.4837 97.1688 13.7207 97.5073 13.8857 97.9051C14.0465 98.2986 14.127 98.7451 14.127 99.2444C14.127 99.7099 14.0465 100.137 13.8857 100.527C13.7207 100.912 13.4837 101.246 13.1748 101.53C12.8659 101.809 12.4871 102.027 12.0386 102.183C11.59 102.336 11.0801 102.412 10.5088 102.412C9.74707 102.412 9.09961 102.283 8.5664 102.025C8.02897 101.767 7.6206 101.398 7.34131 100.92C7.05778 100.438 6.91601 99.8644 6.91601 99.2C6.91601 98.5652 7.05778 98.0109 7.34131 97.5369C7.62484 97.0587 8.03532 96.6884 8.57275 96.4261C9.10595 96.1595 9.7513 96.0262 10.5088 96.0262ZM10.5088 101.32C11.0674 101.32 11.5519 101.246 11.9624 101.098C12.3729 100.95 12.6903 100.721 12.9145 100.412C13.1388 100.103 13.251 99.7057 13.251 99.219C13.251 98.7366 13.1388 98.341 12.9145 98.032C12.6903 97.7189 12.3729 97.4882 11.9624 97.3401C11.5519 97.192 11.0674 97.118 10.5088 97.118C9.95442 97.118 9.47623 97.192 9.07422 97.3401C8.66797 97.4882 8.35482 97.7168 8.13476 98.0257C7.91471 98.3346 7.80469 98.7345 7.80469 99.2254C7.80469 99.949 8.04378 100.48 8.52197 100.819C9.00016 101.153 9.66243 101.32 10.5088 101.32ZM14 87.9443L14 89.0044L4.12304 89.0044L4.12304 87.9443L14 87.9443ZM14 79.4563L14 80.5163L4.12304 80.5163L4.12304 79.4563L14 79.4563ZM14.1269 60.9757C14.1269 61.8559 13.8265 62.5541 13.2256 63.0704C12.6247 63.5825 11.7318 63.8385 10.5469 63.8385C9.34928 63.8385 8.4458 63.5761 7.83642 63.0514C7.22282 62.5266 6.91601 61.8284 6.91601 60.9566C6.91601 60.5885 6.96468 60.2669 7.06201 59.9918C7.15934 59.7167 7.29052 59.4798 7.45556 59.2809C7.61637 59.082 7.80045 58.9148 8.00781 58.7794L8.00781 58.7032C7.87662 58.7202 7.69677 58.7371 7.46826 58.754C7.23974 58.7709 7.05354 58.7794 6.90966 58.7794L4.12304 58.7794L4.12304 57.7257L14 57.7257L14 58.5763L13.0098 58.735L13.0098 58.7794C13.2171 58.9106 13.4054 59.0777 13.5747 59.2809C13.744 59.4798 13.8794 59.7188 13.981 59.9981C14.0783 60.2732 14.1269 60.5991 14.1269 60.9757ZM13.251 60.8106C13.251 60.0659 13.0394 59.539 12.6162 59.2301C12.193 58.9212 11.5646 58.7667 10.731 58.7667L10.5405 58.7667C9.65608 58.7667 8.97688 58.9148 8.50293 59.211C8.02897 59.503 7.79199 60.0362 7.79199 60.8106C7.79199 61.4581 8.04166 61.9426 8.54101 62.2643C9.03613 62.5859 9.71321 62.7467 10.5723 62.7467C11.4271 62.7467 12.0872 62.588 12.5527 62.2706C13.0182 61.949 13.251 61.4623 13.251 60.8106ZM10.5088 44.2928C11.0801 44.2928 11.59 44.3668 12.0386 44.5149C12.4871 44.6631 12.8659 44.8768 13.1748 45.1561C13.4837 45.4354 13.7207 45.7739 13.8857 46.1717C14.0465 46.5652 14.1269 47.0117 14.1269 47.511C14.1269 47.9765 14.0465 48.4039 13.8857 48.7933C13.7207 49.1784 13.4837 49.5127 13.1748 49.7962C12.8659 50.0755 12.4871 50.2934 12.0386 50.45C11.59 50.6023 11.0801 50.6785 10.5088 50.6785C9.74707 50.6785 9.09961 50.5495 8.5664 50.2913C8.02897 50.0332 7.6206 49.665 7.3413 49.1868C7.05778 48.7044 6.91601 48.131 6.91601 47.4666C6.91601 46.8318 7.05778 46.2775 7.3413 45.8035C7.62483 45.3253 8.03531 44.955 8.57275 44.6927C9.10595 44.4261 9.7513 44.2928 10.5088 44.2928ZM10.5088 49.5867C11.0674 49.5867 11.5519 49.5127 11.9624 49.3646C12.3729 49.2164 12.6903 48.9879 12.9145 48.679C13.1388 48.3701 13.251 47.9723 13.251 47.4856C13.251 47.0032 13.1388 46.6076 12.9145 46.2986C12.6903 45.9855 12.3729 45.7549 11.9624 45.6067C11.5519 45.4586 11.0674 45.3846 10.5088 45.3846C9.95442 45.3846 9.47623 45.4586 9.07421 45.6067C8.66796 45.7549 8.35481 45.9834 8.13476 46.2923C7.91471 46.6012 7.80468 47.0011 7.80468 47.492C7.80468 48.2156 8.04378 48.7467 8.52197 49.0853C9.00016 49.4196 9.66243 49.5867 10.5088 49.5867ZM13.9873 31.6089L9.9375 32.8467C9.76399 32.9017 9.59472 32.9546 9.42968 33.0054C9.26041 33.0519 9.0996 33.0964 8.94726 33.1387C8.79069 33.1768 8.6468 33.2127 8.51562 33.2466C8.3802 33.2762 8.26383 33.3016 8.1665 33.3228L8.1665 33.3672C8.26383 33.3841 8.3802 33.4074 8.51562 33.437C8.6468 33.4666 8.79069 33.5026 8.94726 33.5449C9.10384 33.583 9.26888 33.6253 9.44238 33.6719C9.61165 33.7184 9.78304 33.7713 9.95654 33.8306L13.9873 35.1255L13.9873 36.3125L7.03027 38.2295L7.03027 37.1377L10.8706 36.1348C11.1245 36.0671 11.3763 36.0036 11.626 35.9443C11.8714 35.8809 12.1042 35.828 12.3242 35.7856C12.54 35.7391 12.7283 35.7052 12.8892 35.6841L12.8892 35.6333C12.7834 35.6079 12.6564 35.5804 12.5083 35.5508C12.3602 35.5169 12.2036 35.481 12.0386 35.4429C11.8693 35.4006 11.7021 35.3561 11.5371 35.3096C11.3678 35.263 11.2091 35.2165 11.061 35.1699L7.03027 33.8877L7.03027 32.7515L11.0547 31.5137C11.2578 31.4502 11.4694 31.3888 11.6894 31.3296C11.9095 31.2661 12.1232 31.209 12.3306 31.1582C12.5337 31.1074 12.7157 31.0715 12.8765 31.0503L12.8765 30.9995C12.7326 30.9826 12.5548 30.9508 12.3433 30.9043C12.1317 30.8577 11.8989 30.8048 11.645 30.7456C11.3911 30.6821 11.133 30.6165 10.8706 30.5488L7.03027 29.5332L7.03027 28.4604L13.9873 30.3838L13.9873 31.6089ZM6.91601 18.6965C6.91601 17.8713 7.11913 17.2471 7.52538 16.8239C7.9274 16.4008 8.57486 16.1892 9.46777 16.1892L14 16.1892L14 17.2302L9.53759 17.2302C8.95784 17.2302 8.52408 17.3635 8.23632 17.6301C7.94856 17.8925 7.80468 18.2966 7.80468 18.8425C7.80468 19.6127 8.02262 20.1543 8.45849 20.4675C8.89436 20.7806 9.52701 20.9372 10.3564 20.9372L14 20.9372L14 21.9909L7.04296 21.9909L7.04296 21.1403L8.04589 20.9816L8.04589 20.9245C7.80045 20.7764 7.59521 20.5881 7.43017 20.3596C7.2609 20.1311 7.13395 19.875 7.04931 19.5915C6.96044 19.308 6.91601 19.0096 6.91601 18.6965Z" fill="white"/>
<path fill-rule="evenodd" clip-rule="evenodd" d="M8.7809 152.092C5.87246 152.607 3.59065 154.902 3.09149 157.814C3.00637 158.311 3.00012 158.597 3.00012 162.002C3.00012 165.406 3.00637 165.692 3.09149 166.189C3.57731 169.023 5.70863 171.238 8.56029 171.871C9.23744 172.021 10.4294 172.044 11.1543 171.92C14.0258 171.429 16.1942 169.356 16.876 166.449C16.9746 166.029 16.9777 165.915 16.9933 162.196C17.0084 158.56 17.0047 158.347 16.9161 157.828C16.4146 154.885 14.1247 152.592 11.1849 152.089C10.4864 151.969 9.46843 151.971 8.7809 152.092ZM11.0122 154.091C11.9403 154.284 12.736 154.7 13.4287 155.356C13.9078 155.809 14.1978 156.205 14.4936 156.812C14.7707 157.38 14.9151 157.87 14.9851 158.479C15.0448 158.999 15.0448 165.004 14.9851 165.524C14.8934 166.323 14.5936 167.148 14.1546 167.811C13.9294 168.152 13.3985 168.715 13.0577 168.975C11.5646 170.115 9.57944 170.333 7.90213 169.541C7.33345 169.272 6.99943 169.047 6.57762 168.648C5.99325 168.094 5.63277 167.561 5.3348 166.809C4.99261 165.945 4.99754 166.016 4.99754 162.002C4.99754 157.987 4.99261 158.058 5.3348 157.194C5.71544 156.234 6.39546 155.377 7.19725 154.847C7.83017 154.428 8.68582 154.11 9.43168 154.016C9.82689 153.966 10.5829 154.002 11.0122 154.091ZM9.62686 156.065C9.41443 156.156 9.21836 156.344 9.10556 156.563C9.02209 156.725 9.01589 156.857 9.01589 158.479C9.01589 159.944 9.0274 160.247 9.08864 160.394C9.3884 161.111 10.3681 161.201 10.8232 160.553L10.9663 160.35L10.9797 158.547C10.9923 156.839 10.9882 156.734 10.9017 156.566C10.6527 156.082 10.0937 155.862 9.62686 156.065Z" fill="white"/>
</svg>
